<svg xmlns="http://www.w3.org/2000/svg" width="158" height="144.505" viewBox="0 0 158 144.505">
  <path id="Icon_awesome-leaf" data-name="Icon awesome-leaf" d="M21.814.416a.6.6,0,0,0-1.13-.052A6.782,6.782,0,0,1,14.7,4.125H11.5c-4.233,0-7.667,3.7-7.667,8.251,0,.3.032.589.06.881A18.18,18.18,0,0,1,15.336,9.625a.689.689,0,0,1,0,1.375C5.3,11,1.04,17.622.1,20.11A1.413,1.413,0,0,0,.8,21.9a1.249,1.249,0,0,0,1.669-.743,11.277,11.277,0,0,1,2.871-3.893,7.451,7.451,0,0,0,6.985,3.317C18.591,20.089,23,14.038,23,6.63A16.651,16.651,0,0,0,21.814.416Z" transform="translate(82.996 0.002)" fill="#dbdbd1"/>
  <path id="Icon_ionic-md-leaf" data-name="Icon ionic-md-leaf" d="M29.25,20.222C29.25,8.5,18,2.25,18,2.25S6.75,8.5,6.75,20.222c0,8.353,5.716,9.879,9,10.069V33.75h4.5V30.284C23.534,30.1,29.25,28.575,29.25,20.222Z" transform="translate(-1.25 77.505)" fill="#dbdbd1" opacity="0.84"/>
  <path id="Icon_ionic-md-leaf-2" data-name="Icon ionic-md-leaf" d="M29,20.222C29,8.5,17.875,2.25,17.875,2.25S6.75,8.5,6.75,20.222c0,8.353,5.653,9.879,8.9,10.069V33.75H20.1V30.284C23.347,30.1,29,28.575,29,20.222Z" transform="translate(129 77.505)" fill="#dbdbd1" opacity="0.84"/>
  <ellipse id="Ellipse_17" data-name="Ellipse 17" cx="79" cy="24.5" rx="79" ry="24.5" transform="translate(0 95.505)" fill="#dbdbd1" opacity="0.44"/>
  <path id="Icon_awesome-box-open" data-name="Icon awesome-box-open" d="M79.819,44.67a9.07,9.07,0,0,1-7.762-4.431L60,20.054,47.964,40.239a9.1,9.1,0,0,1-7.781,4.45,8.544,8.544,0,0,1-2.494-.36L12,36.906V70.612a6.029,6.029,0,0,0,4.537,5.87L57.076,86.726a12.071,12.071,0,0,0,5.812,0l40.572-10.244A6.062,6.062,0,0,0,108,70.612V36.906l-25.686,7.4A8.544,8.544,0,0,1,79.819,44.67Zm39.86-21.246L110.023,3.959a3.055,3.055,0,0,0-3.131-1.685L60,8.314l17.193,28.8A3.068,3.068,0,0,0,80.662,38.5l37.1-10.7a3.127,3.127,0,0,0,1.912-4.374ZM9.979,3.959.324,23.424a3.1,3.1,0,0,0,1.894,4.355l37.1,10.7A3.068,3.068,0,0,0,42.79,37.1L60,8.314l-46.91-6.04A3.057,3.057,0,0,0,9.979,3.959Z" transform="translate(23.003 40.924)" fill="#575756" opacity="0.27"/>
</svg>
