<svg xmlns="http://www.w3.org/2000/svg" width="27" height="27" viewBox="0 0 27 27">
  <g id="Icon_ionic-ios-add-circle-outline" data-name="Icon ionic-ios-add-circle-outline" transform="translate(-3.375 -3.375)">
    <path id="Path_74" data-name="Path 74" d="M18.583,14.219H15.531V11.167a.656.656,0,0,0-1.311,0v3.052H11.167a.628.628,0,0,0-.656.656.635.635,0,0,0,.656.656h3.052v3.052a.635.635,0,0,0,.656.656.652.652,0,0,0,.656-.656V15.531h3.052a.656.656,0,0,0,0-1.311Z" transform="translate(2 2)" fill="#1251b2"/>
    <path id="Path_75" data-name="Path 75" d="M16.875,5.192a11.678,11.678,0,1,1-8.262,3.42,11.678,11.678,0,0,1,8.262-3.42m0-1.817a13.5,13.5,0,1,0,13.5,13.5,13.5,13.5,0,0,0-13.5-13.5Z" fill="#1251b2"/>
  </g>
</svg>
