<svg xmlns="http://www.w3.org/2000/svg" width="60" height="60" viewBox="0 0 60 60">
  <path id="Icon_awesome-exclamation-circle" data-name="Icon awesome-exclamation-circle" d="M60.563,30.563a30,30,0,1,1-30-30A30,30,0,0,1,60.563,30.563Zm-30,6.048a5.565,5.565,0,1,0,5.565,5.565A5.565,5.565,0,0,0,30.563,36.611Zm-5.283-20,.9,16.452a1.452,1.452,0,0,0,1.449,1.372H33.5a1.452,1.452,0,0,0,1.449-1.372l.9-16.452A1.452,1.452,0,0,0,34.4,15.079H26.729A1.452,1.452,0,0,0,25.279,16.609Z" transform="translate(-0.563 -0.563)" fill="#fff711"/>
</svg>
