<svg xmlns="http://www.w3.org/2000/svg" width="32.673" height="32.727" viewBox="0 0 32.673 32.727">
  <g id="Group_2605" data-name="Group 2605" transform="translate(-315.642 -434.052)">
    <g id="Path_42" data-name="Path 42" transform="matrix(0.839, -0.545, 0.545, 0.839, 315.113, 446.774)" fill="none">
      <path d="M12.264.375a11.573,11.573,0,0,1,11.67,11.762A12.072,12.072,0,0,1,12.057,24.105,11.573,11.573,0,0,1,.388,12.343,12.072,12.072,0,0,1,12.264.375Z" stroke="none"/>
      <path d="M 12.36896800994873 2.374195098876953 C 12.3400182723999 2.374195098876953 12.31089878082275 2.37431526184082 12.28171825408936 2.374574661254883 C 6.873668670654297 2.422115325927734 2.435157775878906 6.901895523071289 2.387538909912109 12.360764503479 C 2.364608764648438 14.99072456359863 3.356159210205078 17.45208549499512 5.179538726806641 19.29144477844238 C 6.978437423706055 21.10609436035156 9.38372802734375 22.1054744720459 11.9523286819458 22.1054744720459 C 11.98127841949463 22.1054744720459 12.01039791107178 22.10535430908203 12.03957843780518 22.10509490966797 C 17.44762802124023 22.05755424499512 21.88613891601562 17.57777404785156 21.93374824523926 12.11890506744385 C 21.95668792724609 9.488945007324219 20.96513748168945 7.027584075927734 19.14175796508789 5.188234329223633 C 17.34285736083984 3.373575210571289 14.93756866455078 2.374195098876953 12.36896800994873 2.374195098876953 M 12.368971824646 0.3741931915283203 C 18.82234573364258 0.3741931915283203 23.99052047729492 5.618581771850586 23.93366813659668 12.13634490966797 C 23.87651824951172 18.68930435180664 18.55922889709473 24.04786491394043 12.05715847015381 24.10501480102539 C 5.555135726928711 24.16217231750488 0.3304691314697266 18.89628601074219 0.3876190185546875 12.34332466125488 C 0.4447784423828125 5.790365219116211 5.762079238891602 0.4318046569824219 12.26413822174072 0.3746547698974609 C 12.29906177520752 0.3743476867675781 12.33412265777588 0.3741931915283203 12.368971824646 0.3741931915283203 Z" stroke="none" fill="#1251b2"/>
    </g>
    <g id="Path_43" data-name="Path 43" transform="translate(315.686 457.866) rotate(-40)" fill="none">
      <path d="M17.276.55c9.464.342,17.133,2.506,17.129,4.834s-7.678,3.938-17.142,3.6S.131,6.475.134,4.147,7.812.208,17.276.55Z" stroke="none"/>
      <path d="M 14.76486968994141 2.504302024841309 C 11.39138984680176 2.504302024841309 8.311809539794922 2.760511875152588 5.859048843383789 3.245232105255127 C 4.243753433227539 3.564446926116943 3.230476379394531 3.925821781158447 2.645351409912109 4.205708503723145 C 3.312822341918945 4.589977264404297 4.568729400634766 5.129501819610596 6.706638336181641 5.649771690368652 C 9.658538818359375 6.3681321144104 13.43324851989746 6.841372013092041 17.33541870117188 6.982321739196777 C 18.15199851989746 7.011821746826172 18.97248840332031 7.026782035827637 19.77410888671875 7.026782035827637 C 23.14759063720703 7.026782035827637 26.22716903686523 6.770571708679199 28.67992973327637 6.285851955413818 C 30.29522514343262 5.966637134552002 31.30849647521973 5.605264663696289 31.89362144470215 5.325377941131592 C 31.22614860534668 4.941111087799072 29.97024917602539 4.401588439941406 27.83234024047852 3.881311893463135 C 24.88042831420898 3.162951946258545 21.10572052001953 2.689712047576904 17.20354843139648 2.54876184463501 C 16.3869686126709 2.519261837005615 15.56647872924805 2.504302024841309 14.76486968994141 2.504302024841309 M 14.76486587524414 0.5043001174926758 C 15.58461952209473 0.5043001174926758 16.42260932922363 0.5192451477050781 17.27574920654297 0.5500621795654297 C 26.73943901062012 0.891901969909668 34.40847015380859 3.056362152099609 34.40501022338867 5.384501934051514 C 34.40155029296875 7.712641716003418 26.72692489624023 9.32286262512207 17.26321983337402 8.981021881103516 C 7.799539566040039 8.639182090759277 0.1305084228515625 6.474731922149658 0.1339683532714844 4.146582126617432 C 0.137115478515625 2.028321266174316 6.491302490234375 0.5043001174926758 14.76486587524414 0.5043001174926758 Z" stroke="none" fill="#1251b2"/>
    </g>
  </g>
</svg>
