<svg xmlns="http://www.w3.org/2000/svg" width="23" height="14" viewBox="0 0 23 14">
  <path id="Icon_awesome-eye" data-name="Icon awesome-eye" d="M22.861,10.968A12.971,12.971,0,0,0,11.5,4.5,12.973,12.973,0,0,0,.139,10.968a1.088,1.088,0,0,0,0,1.064A12.971,12.971,0,0,0,11.5,18.5a12.973,12.973,0,0,0,11.361-6.468A1.088,1.088,0,0,0,22.861,10.968ZM11.5,16.75A5.517,5.517,0,0,1,5.75,11.5,5.517,5.517,0,0,1,11.5,6.25a5.517,5.517,0,0,1,5.75,5.25A5.514,5.514,0,0,1,11.5,16.75ZM11.5,8a4.142,4.142,0,0,0-1.011.138,1.633,1.633,0,0,1-.188,2.268,2.048,2.048,0,0,1-2.483.172,3.349,3.349,0,0,0,1.56,3.815,4.123,4.123,0,0,0,4.458-.129,3.317,3.317,0,0,0,1.294-3.9A3.816,3.816,0,0,0,11.5,8Z" transform="translate(0 -4.5)" fill="#361f02"/>
</svg>
