<svg xmlns="http://www.w3.org/2000/svg" width="24.292" height="23.333" viewBox="0 0 24.292 23.333">
  <g id="Icon_ionic-ios-information-circle-outline" data-name="Icon ionic-ios-information-circle-outline" transform="translate(-3.375 -3.375)">
    <path id="Path_57" data-name="Path 57" d="M16.552,12.108a1.449,1.449,0,1,1,1.441,1.406A1.408,1.408,0,0,1,16.552,12.108Zm.1,2.51h2.686V24.75H16.65Z" transform="translate(-2.479 -2.853)" fill="#eee71c"/>
    <path id="Path_58" data-name="Path 58" d="M15.521,4.946A10.663,10.663,0,0,1,22.954,7.9a9.822,9.822,0,0,1,0,14.28,10.825,10.825,0,0,1-14.867,0,9.822,9.822,0,0,1,0-14.28,10.663,10.663,0,0,1,7.433-2.956m0-1.571A11.912,11.912,0,0,0,3.375,15.042,11.912,11.912,0,0,0,15.521,26.708,11.912,11.912,0,0,0,27.667,15.042,11.912,11.912,0,0,0,15.521,3.375Z" fill="#eee71c"/>
  </g>
</svg>
