<svg xmlns="http://www.w3.org/2000/svg" width="35" height="35" viewBox="0 0 35 35">
  <path id="Icon_material-slow-motion-video" data-name="Icon material-slow-motion-video" d="M22.373,16.688,17.022,12.66V28.49l5.351-4.028,5.175-3.887Zm0,0L17.022,12.66V28.49l5.351-4.028,5.175-3.887Zm0,0L17.022,12.66V28.49l5.351-4.028,5.175-3.887Zm-3.6-10.06V3.075A17.431,17.431,0,0,0,9.443,6.962l2.491,2.515a13.913,13.913,0,0,1,6.842-2.849ZM9.461,11.957l-2.509-2.5a17.521,17.521,0,0,0-3.877,9.357H6.619A13.985,13.985,0,0,1,9.461,11.957ZM6.619,22.334H3.075a17.521,17.521,0,0,0,3.877,9.357l2.509-2.515a13.857,13.857,0,0,1-2.842-6.842ZM9.443,34.188a17.488,17.488,0,0,0,9.333,3.887V34.522a13.913,13.913,0,0,1-6.842-2.849L9.443,34.188ZM38.075,20.575a17.6,17.6,0,0,1-15.7,17.5V34.522a14.073,14.073,0,0,0,0-27.894V3.075A17.6,17.6,0,0,1,38.075,20.575Z" transform="translate(-3.075 -3.075)" fill="#fff"/>
</svg>
