<svg xmlns="http://www.w3.org/2000/svg" width="18" height="23" viewBox="0 0 18 23">
    <path id="Icon_open-question-mark" data-name="Icon open-question-mark" d="M8.946,0A10.884,10.884,0,0,0,2.137,1.9,5.778,5.778,0,0,0,0,5.578l3.622.374A3.205,3.205,0,0,1,4.744,3.968c.688-.546,1.775-1.092,4.2-1.092,2.39,0,3.694.46,4.419.978a2.2,2.2,0,0,1,1.014,1.9c0,2.386-1.231,3.047-3.042,4.313s-4.2,3.1-4.2,6.469v.719h3.622v-.719c0-2.386,1.123-3.047,2.934-4.312S18,9.114,18,5.75A5.022,5.022,0,0,0,15.863,1.7C14.306.575,11.988,0,8.946,0ZM7.135,20.125V23h3.622V20.125Z"/>
</svg>
