<svg xmlns="http://www.w3.org/2000/svg" width="30" height="30" viewBox="0 0 30 30">
  <path id="Icon_awesome-gift" data-name="Icon awesome-gift" d="M1.875,30.107A2.02,2.02,0,0,0,3.75,32.25h9.375V21.536H1.875Zm15,2.143H26.25a2.02,2.02,0,0,0,1.875-2.143V21.536H16.875Zm11.25-21.429H25.658a6.512,6.512,0,0,0,.592-2.679c0-3.248-2.314-5.893-5.156-5.893-2.437,0-4.014,1.426-6.035,4.574-2.021-3.147-3.6-4.574-6.035-4.574C6.182,2.25,3.867,4.9,3.867,8.143a6.42,6.42,0,0,0,.592,2.679H1.875A2.02,2.02,0,0,0,0,12.964v5.357a1.014,1.014,0,0,0,.938,1.071H29.063A1.014,1.014,0,0,0,30,18.321V12.964A2.02,2.02,0,0,0,28.125,10.821Zm-19.107,0A2.527,2.527,0,0,1,6.674,8.143,2.527,2.527,0,0,1,9.018,5.464c1.166,0,2.027.221,5.045,5.357H9.018Zm12.076,0H16.049C19.061,5.7,19.9,5.464,21.094,5.464a2.527,2.527,0,0,1,2.344,2.679A2.527,2.527,0,0,1,21.094,10.821Z" transform="translate(0 -2.25)" fill="#1251b2"/>
</svg>
