<svg id="Icon_feather-settings" data-name="Icon feather-settings" xmlns="http://www.w3.org/2000/svg" width="30" height="30" viewBox="0 0 30 30">
  <path id="Path_61" data-name="Path 61" d="M22.5,18A4.5,4.5,0,1,1,18,13.5,4.5,4.5,0,0,1,22.5,18Z" transform="translate(-3 -3)" fill="none" stroke="#fff" stroke-linecap="round" stroke-linejoin="round" stroke-width="3"/>
  <path id="Path_62" data-name="Path 62" d="M24.082,18.682a2.025,2.025,0,0,0,.4,2.234l.074.074a2.456,2.456,0,1,1-3.473,3.473l-.074-.074a2.041,2.041,0,0,0-3.461,1.448v.209a2.455,2.455,0,1,1-4.909,0v-.11a2.025,2.025,0,0,0-1.325-1.853,2.025,2.025,0,0,0-2.234.4l-.074.074a2.456,2.456,0,1,1-3.473-3.473l.074-.074a2.041,2.041,0,0,0-1.448-3.461H3.955a2.455,2.455,0,1,1,0-4.909h.11a2.025,2.025,0,0,0,1.853-1.325,2.025,2.025,0,0,0-.405-2.234L5.44,9.011A2.456,2.456,0,1,1,8.913,5.538l.074.074a2.025,2.025,0,0,0,2.234.405h.1a2.025,2.025,0,0,0,1.227-1.853V3.955a2.455,2.455,0,0,1,4.909,0v.11a2.041,2.041,0,0,0,3.461,1.448l.074-.074a2.456,2.456,0,1,1,3.473,3.473l-.074.074a2.025,2.025,0,0,0-.405,2.234v.1a2.025,2.025,0,0,0,1.853,1.227h.209a2.455,2.455,0,1,1,0,4.909h-.11a2.025,2.025,0,0,0-1.853,1.227Z" transform="translate(0 0)" fill="none" stroke="#fff" stroke-linecap="round" stroke-linejoin="round" stroke-width="3"/>
</svg>
