<svg xmlns="http://www.w3.org/2000/svg" width="23" height="18" viewBox="0 0 23 18">
  <path id="Icon_awesome-sort-amount-up-alt" data-name="Icon awesome-sort-amount-up-alt" d="M10.781,4.821h2.875a.684.684,0,0,0,.719-.643V2.893a.684.684,0,0,0-.719-.643H10.781a.684.684,0,0,0-.719.643V4.179A.684.684,0,0,0,10.781,4.821Zm0,5.143h5.75a.684.684,0,0,0,.719-.643V8.036a.684.684,0,0,0-.719-.643h-5.75a.684.684,0,0,0-.719.643V9.321A.684.684,0,0,0,10.781,9.964Zm11.5,7.714h-11.5a.684.684,0,0,0-.719.643v1.286a.684.684,0,0,0,.719.643h11.5A.684.684,0,0,0,23,19.607V18.321A.684.684,0,0,0,22.281,17.679Zm-11.5-2.571h8.625a.684.684,0,0,0,.719-.643V13.179a.684.684,0,0,0-.719-.643H10.781a.684.684,0,0,0-.719.643v1.286A.684.684,0,0,0,10.781,15.107ZM.719,7.393H2.875V19.607a.684.684,0,0,0,.719.643H5.031a.684.684,0,0,0,.719-.643V7.393H7.906a.637.637,0,0,0,.508-1.1L4.82,2.438a.78.78,0,0,0-1.016,0L.211,6.3A.637.637,0,0,0,.719,7.393Z" transform="translate(0 -2.25)" fill="#575756"/>
</svg>
