<svg xmlns="http://www.w3.org/2000/svg" width="24.3" height="22.103" viewBox="0 0 24.3 22.103">
  <path id="Icon_awesome-exchange-alt" data-name="Icon awesome-exchange-alt" d="M0,10.125V9.241A1.243,1.243,0,0,1,1.139,7.915H18.225V5.263c0-1.181,1.229-1.77,1.945-.938l3.8,4.42a1.484,1.484,0,0,1,0,1.875l-3.8,4.42c-.713.829-1.945.248-1.945-.938V11.451H1.139A1.243,1.243,0,0,1,0,10.125Zm23.161,8.4H6.075V15.871c0-1.178-1.227-1.772-1.945-.938l-3.8,4.42a1.484,1.484,0,0,0,0,1.875l3.8,4.42c.713.83,1.945.247,1.945-.938V22.059H23.161A1.243,1.243,0,0,0,24.3,20.733v-.884A1.243,1.243,0,0,0,23.161,18.523Z" transform="translate(0 -3.936)" fill="#1251b2"/>
</svg>
