<svg xmlns="http://www.w3.org/2000/svg" width="30" height="26" viewBox="0 0 30 26">
  <path id="Icon_material-group" data-name="Icon material-group" d="M21.955,18.643c2.264,0,4.077-2.489,4.077-5.571S24.218,7.5,21.955,7.5s-4.091,2.489-4.091,5.571S19.691,18.643,21.955,18.643Zm-10.909,0c2.264,0,4.077-2.489,4.077-5.571S13.309,7.5,11.045,7.5,6.955,9.989,6.955,13.071,8.782,18.643,11.045,18.643Zm0,3.714c-3.177,0-9.545,2.173-9.545,6.5V33.5H20.591V28.857C20.591,24.53,14.223,22.357,11.045,22.357Zm10.909,0a11.739,11.739,0,0,0-1.323.093,8.726,8.726,0,0,1,2.686,6.407V33.5H31.5V28.857C31.5,24.53,25.132,22.357,21.955,22.357Z" transform="translate(-1.5 -7.5)" fill="#fff"/>
</svg>
