<svg xmlns="http://www.w3.org/2000/svg" width="17.574" height="17" viewBox="0 0 17.574 17">
  <path id="Icon_ionic-ios-globe" data-name="Icon ionic-ios-globe" d="M12.16,3.375h-.03a8.893,8.893,0,0,0-6.192,2.5,8.306,8.306,0,0,0,0,12.006,8.886,8.886,0,0,0,6.192,2.5h.03a8.655,8.655,0,0,0,8.785-8.5A8.659,8.659,0,0,0,12.16,3.375ZM19.771,11.3H16.493a15.6,15.6,0,0,0-.414-3.114,13.1,13.1,0,0,0,2.1-.858A7.186,7.186,0,0,1,19.771,11.3Zm-8.2,0H8.959A14.08,14.08,0,0,1,9.33,8.479a13.256,13.256,0,0,0,2.238.29Zm0,1.144v2.53a13.313,13.313,0,0,0-2.238.29,14.078,14.078,0,0,1-.372-2.82Zm1.183,0H15.34a14,14,0,0,1-.372,2.816,13.006,13.006,0,0,0-2.217-.286Zm0-1.144V8.769a13.313,13.313,0,0,0,2.217-.286,14.038,14.038,0,0,1,.372,2.82Zm4.621-4.818a11.961,11.961,0,0,1-1.6.633,8.328,8.328,0,0,0-1.119-2.227A7.7,7.7,0,0,1,17.372,6.485Zm-2.72.928a12.263,12.263,0,0,1-1.9.245v-3A4.954,4.954,0,0,1,14.652,7.412ZM11.569,4.642V7.654A12.051,12.051,0,0,1,9.647,7.4,4.953,4.953,0,0,1,11.569,4.642ZM9.643,4.9A8.393,8.393,0,0,0,8.532,7.114a12.228,12.228,0,0,1-1.584-.629A7.579,7.579,0,0,1,9.643,4.9Zm-3.5,2.431a12.845,12.845,0,0,0,2.078.85A14.971,14.971,0,0,0,7.806,11.3H4.553A7.149,7.149,0,0,1,6.141,7.335ZM4.549,12.447H7.8a15.559,15.559,0,0,0,.414,3.114,13.629,13.629,0,0,0-2.078.85A7.187,7.187,0,0,1,4.549,12.447Zm2.395,4.818a12.048,12.048,0,0,1,1.588-.629,8.423,8.423,0,0,0,1.111,2.215A7.767,7.767,0,0,1,6.944,17.265Zm2.7-.924a12.115,12.115,0,0,1,1.922-.249v3.016A4.945,4.945,0,0,1,9.647,16.342Zm3.1,2.75v-3a12.263,12.263,0,0,1,1.9.245A4.951,4.951,0,0,1,12.751,19.092Zm1.9-.233a8.328,8.328,0,0,0,1.119-2.227,11.762,11.762,0,0,1,1.6.637A7.784,7.784,0,0,1,14.652,18.859Zm3.527-2.444a13.1,13.1,0,0,0-2.1-.858,15.518,15.518,0,0,0,.414-3.11h3.277A7.155,7.155,0,0,1,18.179,16.415Z" transform="translate(-3.375 -3.375)" fill="#fff"/>
</svg>
